%TF.GenerationSoftware,KiCad,Pcbnew,8.0.7*%
%TF.CreationDate,2025-10-16T15:58:52-03:00*%
%TF.ProjectId,Potenciostato v2.0,506f7465-6e63-4696-9f73-7461746f2076,v2.0*%
%TF.SameCoordinates,Original*%
%TF.FileFunction,Drillmap*%
%TF.FilePolarity,Positive*%
%FSLAX45Y45*%
G04 Gerber Fmt 4.5, Leading zero omitted, Abs format (unit mm)*
G04 Created by KiCad (PCBNEW 8.0.7) date 2025-10-16 15:58:52*
%MOMM*%
%LPD*%
G01*
G04 APERTURE LIST*
%ADD10C,0.050000*%
%ADD11C,0.200000*%
G04 APERTURE END LIST*
D10*
X18500000Y-5500000D02*
G75*
G02*
X18700000Y-5700000I0J-200000D01*
G01*
X18700000Y-5700000D02*
X18700000Y-15300000D01*
X18500000Y-15500000D02*
X10700000Y-15500000D01*
X10700000Y-5500000D02*
X18500000Y-5500000D01*
X18700000Y-15300000D02*
G75*
G02*
X18500000Y-15500000I-200000J0D01*
G01*
X10700000Y-15500000D02*
G75*
G02*
X10500000Y-15300000I0J200000D01*
G01*
X10500000Y-5700000D02*
G75*
G02*
X10700000Y-5500000I200000J0D01*
G01*
X10500000Y-15300000D02*
X10500000Y-5700000D01*
D11*
X10758277Y-15813984D02*
X10758277Y-15613984D01*
X10758277Y-15613984D02*
X10805896Y-15613984D01*
X10805896Y-15613984D02*
X10834467Y-15623508D01*
X10834467Y-15623508D02*
X10853515Y-15642555D01*
X10853515Y-15642555D02*
X10863039Y-15661603D01*
X10863039Y-15661603D02*
X10872563Y-15699698D01*
X10872563Y-15699698D02*
X10872563Y-15728269D01*
X10872563Y-15728269D02*
X10863039Y-15766365D01*
X10863039Y-15766365D02*
X10853515Y-15785412D01*
X10853515Y-15785412D02*
X10834467Y-15804460D01*
X10834467Y-15804460D02*
X10805896Y-15813984D01*
X10805896Y-15813984D02*
X10758277Y-15813984D01*
X10958277Y-15813984D02*
X10958277Y-15680650D01*
X10958277Y-15718746D02*
X10967801Y-15699698D01*
X10967801Y-15699698D02*
X10977324Y-15690174D01*
X10977324Y-15690174D02*
X10996372Y-15680650D01*
X10996372Y-15680650D02*
X11015420Y-15680650D01*
X11082086Y-15813984D02*
X11082086Y-15680650D01*
X11082086Y-15613984D02*
X11072563Y-15623508D01*
X11072563Y-15623508D02*
X11082086Y-15633031D01*
X11082086Y-15633031D02*
X11091610Y-15623508D01*
X11091610Y-15623508D02*
X11082086Y-15613984D01*
X11082086Y-15613984D02*
X11082086Y-15633031D01*
X11205896Y-15813984D02*
X11186848Y-15804460D01*
X11186848Y-15804460D02*
X11177324Y-15785412D01*
X11177324Y-15785412D02*
X11177324Y-15613984D01*
X11310658Y-15813984D02*
X11291610Y-15804460D01*
X11291610Y-15804460D02*
X11282086Y-15785412D01*
X11282086Y-15785412D02*
X11282086Y-15613984D01*
X11539229Y-15813984D02*
X11539229Y-15613984D01*
X11539229Y-15613984D02*
X11605896Y-15756841D01*
X11605896Y-15756841D02*
X11672562Y-15613984D01*
X11672562Y-15613984D02*
X11672562Y-15813984D01*
X11853515Y-15813984D02*
X11853515Y-15709222D01*
X11853515Y-15709222D02*
X11843991Y-15690174D01*
X11843991Y-15690174D02*
X11824943Y-15680650D01*
X11824943Y-15680650D02*
X11786848Y-15680650D01*
X11786848Y-15680650D02*
X11767801Y-15690174D01*
X11853515Y-15804460D02*
X11834467Y-15813984D01*
X11834467Y-15813984D02*
X11786848Y-15813984D01*
X11786848Y-15813984D02*
X11767801Y-15804460D01*
X11767801Y-15804460D02*
X11758277Y-15785412D01*
X11758277Y-15785412D02*
X11758277Y-15766365D01*
X11758277Y-15766365D02*
X11767801Y-15747317D01*
X11767801Y-15747317D02*
X11786848Y-15737793D01*
X11786848Y-15737793D02*
X11834467Y-15737793D01*
X11834467Y-15737793D02*
X11853515Y-15728269D01*
X11948753Y-15680650D02*
X11948753Y-15880650D01*
X11948753Y-15690174D02*
X11967801Y-15680650D01*
X11967801Y-15680650D02*
X12005896Y-15680650D01*
X12005896Y-15680650D02*
X12024943Y-15690174D01*
X12024943Y-15690174D02*
X12034467Y-15699698D01*
X12034467Y-15699698D02*
X12043991Y-15718746D01*
X12043991Y-15718746D02*
X12043991Y-15775888D01*
X12043991Y-15775888D02*
X12034467Y-15794936D01*
X12034467Y-15794936D02*
X12024943Y-15804460D01*
X12024943Y-15804460D02*
X12005896Y-15813984D01*
X12005896Y-15813984D02*
X11967801Y-15813984D01*
X11967801Y-15813984D02*
X11948753Y-15804460D01*
X12129705Y-15794936D02*
X12139229Y-15804460D01*
X12139229Y-15804460D02*
X12129705Y-15813984D01*
X12129705Y-15813984D02*
X12120182Y-15804460D01*
X12120182Y-15804460D02*
X12129705Y-15794936D01*
X12129705Y-15794936D02*
X12129705Y-15813984D01*
X12129705Y-15690174D02*
X12139229Y-15699698D01*
X12139229Y-15699698D02*
X12129705Y-15709222D01*
X12129705Y-15709222D02*
X12120182Y-15699698D01*
X12120182Y-15699698D02*
X12129705Y-15690174D01*
X12129705Y-15690174D02*
X12129705Y-15709222D01*
M02*
