M48
; DRILL file {KiCad 8.0.7} date 2025-10-16T15:58:52-0300
; FORMAT={-:-/ absolute / metric / decimal}
; #@! TF.CreationDate,2025-10-16T15:58:52-03:00
; #@! TF.GenerationSoftware,Kicad,Pcbnew,8.0.7
; #@! TF.FileFunction,Plated,1,2,PTH
FMAT,2
METRIC
; #@! TA.AperFunction,Plated,PTH,ViaDrill
T1C0.400
; #@! TA.AperFunction,Plated,PTH,ComponentDrill
T2C0.400
; #@! TA.AperFunction,Plated,PTH,ComponentDrill
T3C0.450
; #@! TA.AperFunction,Plated,PTH,ComponentDrill
T4C0.800
; #@! TA.AperFunction,Plated,PTH,ComponentDrill
T5C0.890
; #@! TA.AperFunction,Plated,PTH,ComponentDrill
T6C1.000
; #@! TA.AperFunction,Plated,PTH,ComponentDrill
T7C2.010
; #@! TA.AperFunction,Plated,PTH,ComponentDrill
T8C2.200
%
G90
G05
T1
X106.6Y-108.0
X106.6Y-130.0
X110.25Y-145.0
X114.2Y-101.5
X114.975Y-71.8
X115.0Y-110.25
X116.45Y-118.85
X120.5Y-133.75
X121.037Y-85.938
X124.5Y-145.25
X124.5Y-148.5
X125.75Y-104.0
X126.55Y-85.15
X126.85Y-80.015
X127.5Y-117.75
X129.125Y-102.85
X131.5Y-73.75
X131.5Y-76.7
X131.5Y-132.5
X132.0Y-117.75
X132.525Y-130.737
X133.675Y-137.525
X135.5Y-92.25
X135.725Y-145.2
X136.3Y-140.25
X137.0Y-56.25
X137.0Y-57.75
X137.0Y-59.25
X137.0Y-60.75
X137.0Y-62.25
X137.0Y-63.75
X137.0Y-65.25
X137.0Y-66.75
X137.0Y-68.25
X137.025Y-71.35
X137.1Y-144.525
X137.437Y-81.29
X137.625Y-125.075
X137.675Y-133.725
X138.0Y-128.0
X138.025Y-78.625
X138.2Y-76.725
X138.25Y-103.0
X138.35Y-72.625
X138.675Y-91.375
X138.75Y-68.75
X139.125Y-100.0
X139.25Y-144.525
X139.75Y-117.75
X140.5Y-69.25
X141.975Y-141.775
X142.25Y-69.75
X142.5Y-96.25
X142.5Y-103.75
X142.65Y-136.975
X143.425Y-144.475
X144.1Y-132.7
X145.325Y-98.0
X146.2Y-80.8
X147.0Y-81.8
X148.0Y-67.5
X148.1Y-71.2
X149.5Y-67.5
X149.5Y-86.9
X150.65Y-77.975
X151.0Y-67.5
X152.5Y-67.5
X153.0Y-106.75
X153.125Y-136.2
X153.8Y-122.85
X153.95Y-126.75
X154.0Y-67.5
X154.0Y-70.675
X155.5Y-67.5
X155.65Y-131.875
X156.225Y-80.725
X157.0Y-67.5
X157.4Y-103.95
X158.375Y-80.75
X158.5Y-67.5
X158.5Y-69.0
X158.5Y-70.5
X159.2Y-139.3
X159.75Y-71.25
X159.75Y-80.75
X160.0Y-73.25
X160.0Y-75.25
X160.0Y-140.0
X160.25Y-58.25
X160.25Y-63.25
X160.75Y-108.125
X161.1Y-141.0
X161.25Y-71.25
X161.75Y-73.5
X162.0Y-72.25
X162.0Y-141.8
X162.3Y-99.725
X162.725Y-106.2
X162.8Y-142.6
X163.0Y-89.5
X163.15Y-78.55
X164.25Y-108.525
X164.25Y-111.657
X164.257Y-114.875
X164.5Y-80.75
X164.7Y-127.4
X165.225Y-147.625
X165.525Y-72.25
X166.25Y-80.0
X167.35Y-88.55
X168.15Y-138.725
X168.35Y-119.85
X168.975Y-75.05
X169.85Y-131.075
X170.5Y-61.5
X171.175Y-76.85
X171.475Y-101.6
X171.625Y-86.925
X171.675Y-116.8
X172.0Y-72.25
X172.2Y-100.125
X172.8Y-117.1
X172.987Y-98.512
X175.05Y-102.55
X175.25Y-79.75
X176.5Y-72.25
X176.6Y-118.55
X176.75Y-79.75
X176.825Y-132.5
X177.55Y-85.475
X177.9Y-120.4
X178.175Y-79.175
X178.5Y-76.25
X178.525Y-77.95
X179.275Y-140.2
X180.05Y-83.45
X181.1Y-100.075
X181.325Y-127.85
X181.925Y-87.85
X182.5Y-58.5
X182.5Y-63.0
X184.15Y-101.05
X184.35Y-74.85
X184.75Y-67.75
X184.75Y-71.25
X185.0Y-73.425
X185.65Y-80.1
T2
X107.375Y-150.975
X107.625Y-59.025
X107.858Y-149.808
X107.858Y-152.142
X108.108Y-57.858
X108.108Y-60.192
X109.025Y-149.325
X109.025Y-152.625
X109.275Y-57.375
X109.275Y-60.675
X110.192Y-149.808
X110.192Y-152.142
X110.442Y-57.858
X110.442Y-60.192
X110.675Y-150.975
X110.925Y-59.025
X181.325Y-150.975
X181.808Y-149.808
X181.808Y-152.142
X182.975Y-149.325
X182.975Y-152.625
X184.142Y-149.808
X184.142Y-152.142
X184.625Y-150.975
T4
X113.46Y-88.25
X116.0Y-88.25
T5
X119.035Y-67.0
X121.575Y-67.0
X143.46Y-67.0
X146.0Y-67.0
X167.885Y-67.0
X170.425Y-67.0
T6
X109.195Y-83.65
X111.735Y-83.65
X114.275Y-83.65
X114.745Y-147.375
X117.285Y-147.375
X119.825Y-147.375
X128.2Y-150.5
X128.2Y-153.04
X130.74Y-150.5
X130.74Y-153.04
X133.28Y-150.5
X133.28Y-153.04
X135.82Y-150.5
X135.82Y-153.04
X138.36Y-150.5
X138.36Y-153.04
X140.9Y-150.5
X140.9Y-153.04
X143.44Y-150.5
X143.44Y-153.04
X145.98Y-150.5
X145.98Y-153.04
X148.52Y-150.5
X148.52Y-153.04
X151.06Y-150.5
X151.06Y-153.04
X153.6Y-150.5
X153.6Y-153.04
X156.14Y-150.5
X156.14Y-153.04
X158.68Y-150.5
X158.68Y-153.04
X161.22Y-150.5
X161.22Y-153.04
X163.76Y-150.5
X163.76Y-153.04
T7
X116.495Y-61.92
X126.655Y-61.92
X140.92Y-61.92
X151.08Y-61.92
X165.345Y-61.92
X175.505Y-61.92
T8
X109.025Y-150.975
X109.275Y-59.025
X182.975Y-150.975
T3
G00X106.1Y-89.71
M15
G01X106.9Y-89.71
M16
G05
G00X106.9Y-96.86
M15
G01X106.1Y-96.86
M16
G05
M30
