<?xml version="1.0" standalone="no"?>
<!DOCTYPE svg PUBLIC "-//W3C//DTD SVG 20010904//EN"
 "http://www.w3.org/TR/2001/REC-SVG-20010904/DTD/svg10.dtd">
<svg version="1.0" xmlns="http://www.w3.org/2000/svg"
 width="398.000000pt" height="518.000000pt" viewBox="0 0 398.000000 518.000000"
 preserveAspectRatio="xMidYMid meet">
<metadata>
Created by potrace 1.16, written by Peter Selinger 2001-2019
</metadata>
<g transform="translate(0.000000,518.000000) scale(0.100000,-0.100000)"
fill="#000000" stroke="none">
<path d="M1640 5062 c-55 -8 -210 -56 -309 -94 l-104 -41 6 -121 7 -121 -88
-53 c-48 -29 -116 -77 -152 -107 -115 -96 -93 -91 -216 -45 l-109 40 -48 -52
c-54 -61 -159 -206 -199 -275 l-27 -48 70 -90 c38 -49 69 -94 69 -99 0 -5 -16
-49 -36 -100 -33 -82 -53 -143 -83 -262 l-11 -41 -101 -28 c-56 -16 -107 -35
-114 -41 -28 -28 -29 -481 -1 -503 6 -5 54 -21 106 -36 52 -15 100 -32 106
-39 6 -6 19 -45 29 -86 16 -69 44 -153 90 -270 l18 -46 -72 -93 -71 -93 25
-42 c45 -76 145 -213 198 -271 l52 -57 110 40 110 40 40 -34 c64 -55 175 -137
240 -177 l60 -38 0 -121 0 -121 70 -29 c93 -39 283 -96 330 -100 37 -3 38 -2
105 92 37 52 73 94 80 92 24 -5 375 -3 390 3 11 4 36 -25 83 -95 l68 -101 37
7 c66 12 204 54 302 92 l95 38 1 122 0 122 75 47 c76 47 155 105 224 166 l40
35 108 -39 c60 -22 112 -39 117 -39 13 0 167 199 220 286 l52 84 -64 82 c-35
46 -67 89 -71 95 -5 7 8 53 29 105 21 51 50 139 65 195 33 121 31 119 66 127
16 4 65 18 109 31 l82 25 7 129 c4 71 4 185 0 254 l-7 125 -114 33 c-103 30
-115 36 -120 59 -16 75 -59 216 -90 293 l-35 87 71 92 c39 51 68 99 65 106
-13 34 -140 215 -199 284 l-66 77 -111 -39 -111 -40 -67 53 c-95 77 -135 106
-210 153 l-65 40 3 121 3 120 -54 23 c-71 31 -146 56 -248 85 -142 39 -130 43
-204 -64 l-65 -93 -215 -2 -215 -1 -63 93 c-34 52 -65 95 -68 96 -3 1 -16 0
-30 -2z m861 -118 c63 -20 146 -49 185 -65 l72 -30 -5 -103 -6 -103 79 -48
c236 -143 452 -369 578 -606 68 -127 104 -220 140 -362 19 -70 36 -130 39
-133 3 -3 48 -18 99 -33 l93 -27 9 -103 c5 -58 5 -149 0 -209 l-9 -106 -100
-31 -99 -31 -37 -130 c-42 -152 -63 -206 -131 -336 -129 -246 -379 -502 -623
-637 l-40 -22 3 -108 4 -109 -84 -32 c-117 -46 -237 -86 -278 -93 -34 -6 -36
-5 -88 68 -28 40 -54 80 -57 87 -4 10 -53 13 -228 13 -192 0 -236 3 -323 23
-266 58 -503 173 -702 340 l-73 61 -101 -36 -101 -36 -29 34 c-37 44 -168 224
-196 270 l-21 35 62 79 63 79 -48 111 c-168 393 -169 841 -1 1238 l45 108 -29
32 c-16 18 -51 60 -76 94 l-47 62 56 83 c75 110 183 248 194 248 19 0 186 -63
201 -76 8 -8 19 -14 23 -14 4 0 33 23 64 51 180 161 444 291 713 350 90 20
134 23 328 24 l224 1 20 30 c74 103 99 134 111 134 7 0 64 -16 127 -36z"/>
<path d="M1850 4739 c-677 -76 -1224 -590 -1341 -1259 -23 -131 -27 -350 -9
-470 16 -107 58 -262 96 -357 124 -308 349 -570 638 -741 171 -102 367 -172
563 -201 93 -14 343 -14 436 0 599 89 1093 521 1254 1099 77 278 71 611 -17
879 -224 687 -907 1130 -1620 1050z m433 -84 c120 -22 274 -73 383 -128 97
-49 249 -148 302 -197 32 -30 33 -32 15 -45 -10 -8 -22 -14 -28 -15 -5 0 -44
32 -85 70 l-75 69 -146 1 -145 0 -22 30 c-41 55 -122 31 -122 -36 0 -69 73
-99 120 -49 23 24 27 25 164 25 l141 -1 59 -54 59 -55 -167 0 c-106 0 -166 4
-166 10 0 6 -11 15 -25 22 -31 14 -75 -12 -75 -44 0 -51 61 -76 95 -38 17 19
31 20 213 20 187 0 197 1 219 22 l23 22 36 -35 c38 -36 147 -171 177 -220 19
-28 19 -29 -1 -29 -13 0 -31 17 -52 50 l-32 50 -143 0 -144 0 -13 27 c-7 15
-25 32 -41 37 -59 21 -114 -67 -71 -115 25 -27 79 -25 107 5 21 23 25 23 155
18 127 -4 134 -6 152 -30 23 -29 25 -42 7 -42 -7 0 -55 -43 -107 -95 -80 -80
-100 -95 -126 -95 -17 0 -37 7 -44 15 -33 40 -90 18 -90 -35 0 -50 54 -69 87
-30 11 13 30 20 53 20 31 0 46 11 130 95 l95 96 60 -3 60 -3 47 -90 c26 -49
47 -96 48 -102 0 -8 -13 -13 -33 -13 -26 0 -43 -11 -87 -55 l-54 -55 -288 0
c-194 0 -288 3 -288 10 0 21 -49 60 -75 60 -55 0 -87 -79 -48 -122 22 -24 75
-23 98 2 18 20 29 20 313 20 l295 -1 56 55 c48 48 62 56 93 56 37 0 37 0 58
-67 26 -83 50 -195 50 -231 0 -20 -19 -46 -72 -99 l-72 -73 -66 0 -66 0 -70
85 -69 85 -186 0 c-173 0 -187 1 -204 20 -10 11 -25 20 -33 20 -24 0 -52 -31
-52 -56 0 -49 67 -74 92 -34 12 19 24 20 190 20 l176 0 56 -64 c31 -35 56 -66
56 -70 0 -3 -42 -6 -94 -6 -71 0 -97 4 -106 15 -15 18 -61 20 -78 3 -7 -7 -12
-24 -12 -38 0 -14 5 -31 12 -38 19 -19 66 -14 80 8 12 19 24 20 198 20 l186 0
69 70 70 71 7 -38 c9 -48 10 -186 2 -207 -5 -14 -39 -16 -280 -16 -266 0 -274
1 -284 21 -8 15 -19 19 -42 17 -42 -4 -62 -34 -45 -68 15 -29 65 -40 82 -17 8
11 63 15 283 21 302 8 291 10 278 -57 -4 -23 -23 -47 -67 -84 -60 -53 -61 -53
-127 -53 -56 0 -69 3 -80 20 -24 38 -92 16 -92 -31 0 -23 34 -59 55 -59 8 0
23 9 32 20 14 17 30 20 89 20 69 0 72 1 118 41 26 23 49 39 52 36 5 -5 -27
-137 -50 -202 l-14 -40 -114 -3 -113 -3 -95 96 c-86 86 -98 95 -132 95 -21 0
-38 4 -38 10 0 5 -8 14 -18 19 -49 26 -97 -29 -67 -75 19 -30 59 -31 82 -4 34
39 61 26 160 -72 l93 -93 105 3 c85 3 106 1 111 -11 5 -14 -58 -150 -88 -191
-14 -17 -18 -15 -75 38 -57 53 -64 56 -112 56 -39 0 -51 4 -51 15 0 24 -46 65
-73 65 -55 0 -85 -69 -51 -118 18 -26 74 -30 98 -7 9 10 34 15 68 15 51 0 56
-3 111 -55 l58 -56 -28 -37 c-15 -20 -47 -61 -71 -89 l-44 -53 -69 0 c-56 0
-73 4 -89 20 -25 25 -45 25 -70 0 -25 -25 -25 -45 0 -70 25 -25 41 -25 73 0
25 20 117 29 117 12 0 -5 -30 -34 -66 -65 l-66 -57 -134 0 c-74 0 -134 2 -134
4 0 2 9 24 20 48 30 68 35 144 15 213 -21 73 -63 157 -215 430 -66 118 -135
245 -155 282 -20 37 -47 83 -60 102 l-25 34 0 432 c0 237 -3 507 -7 598 -5
137 -4 167 7 167 8 0 27 12 42 27 37 36 37 75 -1 114 l-29 29 -253 0 -253 0
-28 -27 c-17 -16 -28 -37 -28 -53 0 -34 50 -90 80 -90 l23 0 -6 -227 c-4 -126
-10 -388 -13 -583 l-6 -355 -173 -350 c-95 -192 -195 -386 -222 -430 -48 -80
-48 -80 -48 -170 0 -67 5 -101 19 -133 10 -23 23 -42 28 -42 4 0 8 -4 8 -10 0
-6 -54 -10 -142 -10 l-141 0 -111 111 c-112 112 -124 139 -47 105 68 -31 129
19 104 85 -10 26 -7 40 25 114 25 56 42 85 53 85 53 0 82 78 44 120 -19 21
-69 27 -95 10 -24 -15 -67 18 -73 56 -5 27 3 49 36 109 38 68 45 75 74 75 22
0 38 8 52 26 38 48 19 101 -41 113 -25 5 -39 18 -65 61 -29 48 -31 56 -18 70
13 13 20 12 61 -10 31 -16 51 -36 60 -57 24 -57 78 -70 119 -28 15 14 25 36
25 53 0 23 10 38 44 66 25 20 59 39 76 42 56 12 80 82 40 119 -13 12 -20 31
-20 54 0 62 12 111 26 111 7 0 21 11 30 25 13 20 15 33 7 58 -12 42 13 117 40
117 9 0 23 11 29 25 14 32 -3 75 -31 75 -29 0 -54 46 -47 86 11 57 -50 97 -88
58 -31 -30 -7 -94 34 -94 23 0 33 -23 37 -85 8 -123 5 -129 -63 -139 -61 -8
-94 13 -94 59 0 34 -36 75 -66 75 -8 0 -30 32 -49 71 -33 65 -35 73 -24 104 9
24 10 40 2 57 -13 29 21 94 54 103 18 4 23 13 23 35 0 17 -5 30 -10 30 -18 0
1 103 22 118 36 26 13 84 -36 93 -25 5 106 80 229 130 99 41 255 82 370 98 96
13 341 6 448 -14z m-28 -155 c9 -10 15 -27 13 -37 -3 -16 -17 -19 -108 -24
-215 -13 -384 -10 -408 7 -24 16 -29 43 -11 61 6 6 97 10 254 11 224 0 245 -1
260 -18z m-1075 -113 c0 -13 8 -32 19 -41 15 -13 17 -26 13 -64 -2 -26 -9 -52
-14 -59 -5 -6 -8 -20 -6 -30 1 -10 -7 -34 -18 -54 -18 -31 -26 -35 -51 -32
-21 4 -38 -2 -59 -20 -41 -34 -197 -59 -221 -34 -14 14 -13 20 20 64 58 78
285 293 309 293 5 0 8 -11 8 -23z m1004 -99 c3 -57 8 -275 10 -484 l5 -382
-90 -7 c-50 -4 -138 -4 -196 0 l-105 7 6 57 c3 31 9 248 12 484 l7 427 173 0
172 0 6 -102z m-1137 -277 c10 -15 8 -22 -10 -39 -12 -11 -33 -22 -47 -24 -34
-4 -42 -53 -10 -63 24 -8 50 10 50 35 0 26 35 52 66 48 24 -2 34 -14 61 -68
35 -72 39 -91 21 -119 -9 -15 -9 -26 1 -47 6 -15 8 -30 4 -34 -4 -4 -34 -26
-66 -50 -43 -31 -62 -39 -70 -31 -15 15 -49 14 -74 -4 -19 -13 -27 -12 -87 18
-45 22 -66 38 -66 50 0 10 -13 32 -30 48 -28 29 -29 32 -20 82 20 108 32 147
46 147 7 0 23 10 34 23 14 14 42 26 83 33 90 17 101 16 114 -5z m296 -331 c17
-14 23 -26 20 -41 -4 -12 3 -32 16 -49 16 -23 21 -43 21 -95 0 -60 -2 -66 -25
-75 -28 -11 -40 -46 -32 -90 5 -25 1 -33 -32 -59 -28 -23 -49 -31 -78 -31 -21
0 -48 -7 -61 -15 -19 -14 -25 -14 -54 1 -46 23 -68 44 -68 65 0 10 -9 24 -21
32 -19 14 -20 19 -10 88 5 41 15 75 21 77 20 7 41 35 47 63 7 34 134 135 179
142 16 2 34 5 40 6 6 0 23 -8 37 -19z m-650 -52 c6 -18 -11 -49 -41 -74 -21
-17 -23 -23 -13 -42 14 -26 53 -29 72 -6 9 11 10 20 3 32 -15 23 5 72 29 72
10 0 27 5 37 10 25 14 147 -45 156 -75 4 -11 15 -29 26 -41 16 -18 18 -30 12
-88 -6 -57 -11 -69 -34 -86 -15 -11 -30 -30 -34 -43 -7 -29 -148 -120 -172
-110 -8 3 -32 0 -53 -7 -34 -11 -42 -10 -81 10 l-43 22 6 121 c4 67 15 158 24
202 17 75 20 81 53 97 43 21 47 21 53 6z m1302 -253 c44 0 108 3 143 7 l62 8
0 -101 c0 -100 0 -101 42 -172 52 -88 175 -325 308 -594 56 -111 105 -205 110
-208 13 -8 1 -101 -21 -160 -28 -74 -83 -145 -114 -145 -43 0 -71 20 -156 116
-89 100 -204 190 -279 220 -25 10 -48 22 -52 28 -12 18 -9 165 4 185 10 16 14
13 37 -33 27 -53 55 -73 116 -83 l35 -6 0 52 c0 69 -28 123 -76 146 -27 13
-33 19 -23 26 28 18 46 8 64 -32 29 -63 72 -91 137 -87 50 3 53 4 50 28 -5 46
-44 112 -79 132 l-33 20 25 29 c13 16 27 44 30 62 7 35 -13 108 -31 114 -15 5
-90 -51 -111 -83 -12 -19 -16 -43 -15 -79 2 -50 1 -54 -27 -63 -28 -10 -29
-10 -35 34 -8 64 -31 101 -76 124 -21 11 -41 20 -44 20 -9 0 -26 -65 -26 -102
0 -49 19 -86 59 -116 l31 -22 -35 -55 c-19 -30 -35 -61 -35 -68 0 -13 -44 3
-109 40 -2 1 10 18 27 37 38 44 46 67 37 121 -9 64 -23 70 -78 35 -50 -31 -80
-79 -79 -122 l1 -28 -43 25 c-26 15 -58 25 -82 25 -38 0 -104 -31 -104 -49 0
-18 44 -62 81 -81 46 -24 77 -25 126 -5 19 8 45 15 57 15 21 -1 21 -1 1 -18
-47 -40 -65 -74 -65 -121 0 -62 19 -89 52 -74 71 32 125 108 112 159 -6 24 -5
25 15 15 27 -15 49 -49 57 -89 6 -28 4 -32 -15 -32 -59 0 -161 -84 -277 -228
-47 -58 -89 -112 -93 -120 -8 -14 -14 -14 -51 -2 -101 33 -173 123 -185 232
-8 66 -8 65 143 353 261 499 297 571 298 605 0 19 1 68 2 108 l2 74 53 -9 c28
-4 88 -8 132 -8z m-1051 -166 c20 -11 50 -45 70 -77 29 -47 32 -59 23 -79 -8
-18 -7 -33 2 -58 11 -31 9 -38 -30 -108 -33 -60 -48 -76 -70 -81 -15 -3 -36
-15 -47 -26 -24 -25 -122 -54 -136 -40 -6 6 -21 10 -36 10 -35 0 -77 85 -75
153 1 64 48 157 89 177 19 9 32 24 34 38 3 16 25 37 70 67 37 24 68 44 69 45
1 0 18 -9 37 -21z m1 -567 c7 -30 8 -53 1 -63 -20 -34 20 -73 49 -49 19 16 19
49 1 56 -19 7 -42 102 -28 116 15 15 72 -28 72 -53 0 -11 5 -29 11 -40 8 -16
7 -28 -5 -52 -8 -18 -23 -53 -34 -78 -16 -36 -27 -47 -53 -55 -23 -6 -39 -19
-49 -41 -34 -72 -69 -47 -160 110 -56 99 -58 127 -9 153 20 10 29 22 29 39 0
19 7 26 28 31 15 3 40 9 56 13 41 9 78 -26 91 -87z m1160 -353 c49 -26 130
-94 198 -167 120 -128 130 -115 -80 -111 -128 3 -186 8 -195 17 -10 9 -5 12
25 12 53 0 49 25 -5 35 -51 9 -42 14 43 23 47 5 64 11 64 22 0 12 -15 16 -67
18 -38 2 -68 6 -68 10 0 4 33 9 73 10 72 3 107 18 93 41 -4 6 -37 11 -77 11
l-69 0 0 50 c0 57 6 60 65 29z"/>
<path d="M2385 1341 c-97 -25 -196 -103 -238 -188 -97 -191 -22 -415 169 -509
54 -26 68 -29 169 -30 108 0 109 0 126 -28 11 -19 15 -41 11 -72 -4 -41 3 -61
92 -239 78 -156 103 -198 126 -210 56 -29 109 -16 135 35 22 42 20 53 -31 160
-115 243 -150 304 -185 322 -18 10 -41 33 -51 51 l-17 34 53 55 c179 185 121
487 -114 596 -59 28 -184 39 -245 23z m200 -125 c158 -74 201 -273 88 -405
-73 -86 -185 -112 -297 -71 -123 46 -191 187 -151 314 23 73 63 118 137 155
78 40 150 42 223 7z"/>
<path d="M787 1323 c-65 -22 -130 -82 -164 -151 -24 -49 -28 -69 -28 -142 0
-98 20 -152 80 -218 55 -62 124 -92 208 -92 92 0 139 15 193 63 59 52 82 99
84 173 3 116 20 104 -140 104 l-140 0 0 -50 0 -50 70 0 c75 0 81 -5 59 -53
-24 -54 -113 -76 -176 -44 -54 28 -77 72 -82 154 -3 64 0 78 23 116 53 92 180
104 239 23 12 -17 17 -15 59 29 26 26 44 52 42 59 -10 22 -68 60 -118 78 -63
21 -146 22 -209 1z"/>
<path d="M1260 1025 l0 -305 70 0 70 0 0 305 0 305 -70 0 -70 0 0 -305z"/>
<path d="M1697 1323 c-11 -19 -237 -586 -235 -588 4 -5 79 -9 115 -7 28 2 34
7 51 54 23 63 42 70 165 66 l82 -3 22 -55 22 -55 75 -3 76 -3 -17 43 c-9 24
-39 97 -66 163 -26 66 -64 159 -82 206 -18 48 -43 110 -56 138 l-21 51 -64 0
c-34 0 -65 -3 -67 -7z"/>
<path d="M2983 1030 l-122 -301 77 3 77 3 18 52 c19 52 19 52 71 58 28 4 80 5
115 3 l65 -3 20 -57 21 -58 76 0 77 0 -75 183 c-40 100 -92 229 -115 287 -22
58 -45 111 -51 118 -6 7 -34 12 -71 12 l-62 0 -121 -300z"/>
</g>
</svg>
