<?xml version="1.0" standalone="no"?>
<!DOCTYPE svg PUBLIC "-//W3C//DTD SVG 20010904//EN"
 "http://www.w3.org/TR/2001/REC-SVG-20010904/DTD/svg10.dtd">
<svg version="1.0" xmlns="http://www.w3.org/2000/svg"
 width="638.000000pt" height="300.000000pt" viewBox="0 0 638.000000 300.000000"
 preserveAspectRatio="xMidYMid meet">
<metadata>
Created by potrace 1.16, written by Peter Selinger 2001-2019
</metadata>
<g transform="translate(0.000000,300.000000) scale(0.100000,-0.100000)"
fill="#000000" stroke="none">
<path d="M5880 2688 c0 -91 -31 -223 -70 -300 -16 -32 -115 -160 -220 -285
-274 -330 -361 -448 -430 -588 -85 -172 -104 -238 -105 -360 0 -78 4 -110 19
-143 24 -54 42 -54 49 1 15 108 101 311 184 433 77 114 174 217 189 201 3 -2
-26 -46 -65 -97 -171 -228 -279 -496 -297 -740 -14 -180 40 -396 131 -529 55
-80 128 -142 146 -124 8 8 -3 23 -37 54 -96 88 -144 196 -144 322 0 92 22 173
75 282 62 124 143 225 260 323 137 113 205 182 205 207 0 18 -5 20 -58 17 -65
-4 -145 13 -140 29 2 6 35 23 73 38 144 56 260 153 333 278 40 68 79 170 69
179 -3 3 -18 -1 -34 -9 -62 -33 -212 -47 -220 -22 -1 6 20 24 48 40 28 17 80
58 114 92 109 107 155 214 155 358 0 137 -50 261 -146 360 -72 76 -84 74 -84
-17z"/>
<path d="M3856 2244 c-131 -32 -251 -127 -303 -241 -56 -121 -39 -303 36 -403
72 -96 143 -137 411 -241 157 -60 168 -66 225 -124 70 -69 95 -129 95 -225 0
-112 -47 -192 -138 -237 -51 -25 -68 -28 -157 -28 -87 1 -107 4 -158 28 -137
63 -229 178 -292 365 l-23 67 -38 0 -38 0 2 -130 c1 -71 5 -187 8 -257 l7
-128 37 0 c33 0 41 5 60 35 12 19 25 35 30 35 4 0 36 -13 71 -30 97 -45 208
-70 312 -70 156 0 277 44 378 137 102 95 139 181 139 323 1 150 -45 247 -154
324 -80 57 -101 67 -300 147 -241 97 -310 148 -342 255 -40 133 8 243 134 308
45 23 164 24 232 1 79 -26 162 -109 210 -209 21 -45 48 -114 60 -153 l22 -73
39 0 39 0 -1 123 c-1 67 -4 181 -8 252 l-6 130 -25 0 c-36 1 -59 -13 -72 -41
-6 -13 -17 -24 -23 -24 -7 0 -50 18 -96 39 -130 61 -249 75 -373 45z"/>
<path d="M44 2221 c-2 -2 -4 -17 -4 -32 0 -30 6 -33 76 -44 50 -8 97 -35 121
-72 17 -25 18 -68 23 -558 l5 -530 33 -67 c57 -116 174 -202 332 -244 81 -21
272 -24 350 -5 180 44 330 171 383 324 7 20 13 208 17 517 7 530 9 539 66 589
28 25 55 35 162 57 19 4 23 10 20 35 l-3 30 -297 0 c-164 -1 -302 -1 -308 -1
-5 0 -10 -13 -10 -30 0 -23 5 -31 23 -34 150 -31 181 -48 217 -121 l25 -50 0
-470 0 -470 -28 -61 c-75 -162 -255 -246 -462 -215 -162 24 -265 120 -295 276
-8 42 -10 210 -8 547 l3 486 23 25 c24 25 81 47 124 47 38 0 62 23 55 51 l-6
24 -316 0 c-174 0 -319 -2 -321 -4z"/>
<path d="M1691 2215 c-4 -5 -5 -21 -2 -35 5 -18 16 -26 44 -32 92 -19 173 -76
204 -144 l24 -52 -3 -524 c-3 -521 -3 -523 -26 -565 -25 -49 -52 -65 -149 -91
-64 -18 -68 -21 -71 -51 l-3 -31 313 2 313 3 0 29 c0 28 -3 30 -83 51 -95 25
-128 46 -154 97 -33 63 -38 144 -38 601 0 353 3 447 13 447 7 0 17 -8 24 -19
18 -29 841 -1140 880 -1189 31 -38 39 -43 72 -40 l36 3 6 655 c3 457 9 665 17
689 26 78 61 104 166 125 59 12 61 14 61 45 l0 32 -300 0 c-165 -1 -303 -1
-307 -1 -13 0 -9 -47 5 -57 6 -5 37 -15 67 -22 136 -29 171 -70 190 -221 14
-108 10 -855 -5 -855 -5 0 -139 176 -298 390 -158 215 -347 471 -420 569 -72
98 -135 183 -138 188 -8 13 -429 16 -438 3z"/>
</g>
</svg>
